M48
; DRILL file KiCad 10.0.1 date 2026-08-24T23:28:16
; FORMAT={-:-/ absolute / metric / decimal}
; #@! TF.CreationDate,2026-08-24T23:28:16+02:00
; #@! TF.GenerationSoftware,Kicad,Pcbnew,10.0.1
; #@! TF.FileFunction,Plated,1,2,PTH
FMAT,2
METRIC
; #@! TA.AperFunction,Plated,PTH,ViaDrill
T1C0.300
; #@! TA.AperFunction,Plated,PTH,ComponentDrill
T2C0.800
; #@! TA.AperFunction,Plated,PTH,ComponentDrill
T3C0.900
; #@! TA.AperFunction,Plated,PTH,ComponentDrill
T4C0.950
; #@! TA.AperFunction,Plated,PTH,ComponentDrill
T5C1.000
; #@! TA.AperFunction,Plated,PTH,ComponentDrill
T6C1.100
; #@! TA.AperFunction,Plated,PTH,ComponentDrill
T7C1.200
; #@! TA.AperFunction,Plated,PTH,ComponentDrill
T8C1.600
%
G90
G05
T1
X171.3Y-123.4
X171.4Y-74.1
X171.5Y-55.7
X171.5Y-62.0
X171.5Y-109.1
X171.5Y-117.2
X171.6Y-82.5
X171.6Y-101.2
X176.35Y-52.35
X176.35Y-62.35
X176.35Y-67.35
X176.35Y-72.35
X176.35Y-77.35
X176.35Y-82.35
X176.35Y-87.35
X176.35Y-92.35
X176.35Y-112.35
X176.35Y-122.35
X176.35Y-127.35
X179.1Y-106.8
X179.2Y-105.5
X180.4Y-55.8
X180.4Y-61.7
X180.4Y-72.4
X180.4Y-75.8
X181.35Y-82.35
X181.35Y-87.35
X181.35Y-92.35
X181.35Y-107.35
X181.35Y-112.35
X184.2Y-79.9
X185.8Y-103.5
X185.8Y-104.5
X186.35Y-67.35
X186.35Y-72.35
X186.35Y-82.35
X186.35Y-87.35
X186.35Y-107.35
X186.35Y-122.35
X187.8Y-54.0
X189.5Y-75.8
X189.5Y-84.1
X189.5Y-112.5
X189.7Y-110.3
X190.7Y-85.2
X190.75Y-77.35
X191.1Y-125.4
X191.21Y-122.89
X191.35Y-57.35
X191.35Y-62.35
X191.35Y-107.35
X191.35Y-117.35
X191.35Y-127.35
X191.8Y-70.3
X191.8Y-87.7
X192.1Y-96.0
X192.5Y-93.2
X193.7Y-67.9
X195.5Y-75.5
X196.2Y-125.4
X196.35Y-77.35
X196.35Y-82.35
X196.35Y-87.35
X196.35Y-92.35
X196.35Y-97.35
X196.35Y-102.35
X196.35Y-117.35
X196.35Y-127.35
X196.5Y-122.9
X196.7Y-74.5
X197.1Y-105.2
X197.3Y-97.1
X197.4Y-57.4
X197.5Y-67.5
X198.0Y-107.3
X198.1Y-113.2
X201.35Y-57.35
X201.35Y-62.35
X201.35Y-67.35
X201.35Y-72.35
X201.35Y-82.35
X201.35Y-87.35
X201.35Y-97.35
X201.35Y-112.35
X201.35Y-117.35
X201.35Y-127.35
X201.8Y-99.3
X201.9Y-115.3
X203.8Y-101.3
X204.2Y-111.3
X204.9Y-107.1
X205.8Y-113.1
X206.3Y-109.0
X206.35Y-52.35
X206.35Y-77.35
X206.35Y-87.35
X206.35Y-102.35
X206.35Y-107.35
X206.35Y-127.35
X211.35Y-57.35
X211.35Y-77.35
X211.35Y-82.35
X211.35Y-97.35
X211.35Y-107.35
X211.35Y-117.35
X211.35Y-122.35
X211.35Y-127.35
X211.5Y-116.2
X216.2Y-128.5
X216.35Y-52.35
X216.35Y-57.35
X216.35Y-62.35
X216.35Y-67.35
X216.35Y-77.35
X216.35Y-82.35
X216.35Y-87.35
X216.35Y-102.35
X216.35Y-117.35
X216.35Y-127.35
X221.35Y-52.35
X221.35Y-77.35
X221.35Y-82.35
X221.35Y-87.35
X221.35Y-97.35
X221.35Y-102.35
X221.35Y-107.35
X221.35Y-112.35
X221.35Y-117.35
X221.35Y-122.35
X223.9Y-118.2
T2
X173.5Y-64.62
X173.5Y-74.78
X174.5Y-79.8
X174.52Y-83.2
X174.576Y-94.83
X174.576Y-99.83
X174.576Y-102.13
X174.576Y-107.13
X174.6Y-86.8
X174.6Y-109.8
X174.62Y-90.3
X177.9Y-95.3
X178.2Y-64.62
X178.2Y-74.78
X179.5Y-79.8
X179.6Y-86.8
X179.6Y-109.8
X182.7Y-64.62
X182.7Y-74.78
X182.9Y-95.3
X184.68Y-83.2
X184.78Y-90.3
X185.9Y-92.9
X185.9Y-97.9
X186.7Y-64.62
X186.7Y-74.78
X188.1Y-56.8
X188.1Y-61.8
X197.1Y-119.1
X199.6Y-88.6
X199.6Y-93.6
X202.1Y-69.9
X202.1Y-74.9
X202.1Y-119.1
X205.7Y-61.403
X205.7Y-66.403
X207.675Y-71.0
X207.675Y-93.425
X211.62Y-66.3
X215.0Y-116.2
X215.0Y-118.74
X215.0Y-121.28
X215.2Y-96.79
X215.2Y-104.41
X215.2Y-106.9
X215.2Y-109.44
X215.2Y-111.98
X219.2Y-99.42
X219.2Y-109.58
X219.4Y-112.62
X219.4Y-122.78
X220.45Y-71.0
X220.525Y-93.425
X221.78Y-66.3
X222.6Y-99.42
X222.6Y-109.58
T3
X174.635Y-58.9
X177.175Y-58.9
X181.73Y-58.9
X184.27Y-58.9
T4
X181.2Y-50.6
X181.2Y-127.4
X183.7Y-50.6
X183.7Y-127.4
X186.2Y-50.6
X186.2Y-127.4
X188.7Y-50.6
X188.7Y-127.4
X191.2Y-50.6
X193.7Y-50.6
X196.2Y-50.6
X198.7Y-50.6
X201.2Y-50.6
X203.7Y-50.6
T5
X183.26Y-110.8
X183.26Y-113.34
X183.26Y-115.88
X185.8Y-110.8
X185.8Y-113.34
X185.8Y-115.88
X194.0Y-98.74
X194.0Y-101.28
X194.0Y-103.82
X194.0Y-106.36
X194.0Y-108.9
X194.0Y-111.44
X194.0Y-113.98
X194.0Y-116.52
X194.0Y-119.06
X194.0Y-121.6
X194.0Y-124.14
X194.0Y-126.68
X194.0Y-129.22
X209.0Y-98.74
X209.0Y-101.28
X209.0Y-103.82
X209.0Y-106.36
X209.0Y-108.9
X209.0Y-111.44
X209.0Y-113.98
X209.0Y-116.52
X209.0Y-119.06
X209.0Y-121.6
X209.0Y-124.14
X209.0Y-126.68
X209.0Y-129.22
X212.0Y-50.6
X214.5Y-50.6
T6
X173.45Y-117.55
X173.45Y-122.05
X179.95Y-117.55
X179.95Y-122.05
T7
X211.7Y-62.1
X221.86Y-62.1
T8
X207.88Y-56.4
X223.12Y-56.4
M30
